<?xml version="1.0" encoding="UTF-8"?>
<!-- Created with Inkscape (http://www.inkscape.org/) -->
<svg width="48" height="48" version="1.1" viewBox="0 0 48 48" xmlns="http://www.w3.org/2000/svg" xmlns:cc="http://creativecommons.org/ns#" xmlns:dc="http://purl.org/dc/elements/1.1/" xmlns:rdf="http://www.w3.org/1999/02/22-rdf-syntax-ns#">
 <metadata>
  <rdf:RDF>
   <cc:Work rdf:about="">
    <dc:format>image/svg+xml</dc:format>
    <dc:type rdf:resource="http://purl.org/dc/dcmitype/StillImage"/>
    <dc:title/>
   </cc:Work>
  </rdf:RDF>
 </metadata>
 <g transform="matrix(.5286 0 0 .51607 1.4074 -1.3976)">
  <path d="m4.3635 28.201c2.0685-9.711 16.418-11.542 25.71-15.041 8.3971-3.1629 17.562-6.4906 26.429-5.1132 4.9494 0.76885 9.4277 3.8905 13.192 7.1951 4.8292 4.2399 11.443 9.1626 11.344 15.588-0.07524 4.9138-4.9177 8.9681-9.0361 11.649-3.7675 2.4529-13.09 3.2474-13.09 3.2474l-6.5721 4.1624 1.9716 9.201s-11.152 6.1535-17.298 6.4326c-7.3355 0.33311-21.259-5.7754-21.259-5.7754l-0.65722-16.43s-2.3593-3.4044-3.5549-5.0953c-2.3722-3.3551-8.0356-6.0017-7.1795-10.021z" fill="#fff" stroke="#000" stroke-linecap="round" stroke-linejoin="round" stroke-width="2.535" style="paint-order:markers fill stroke"/>
  <g fill="none" stroke="#000">
   <g stroke-linecap="round">
    <path d="m15.098 43.536s12.792 5.171 19.536 6.3667c5.8872 1.0437 17.925 0.64362 17.925 0.64362" stroke-linejoin="round" stroke-width="2.2331"/>
    <path d="m21.451 31.706s-1.3196 4.2195-0.96066 6.3199c0.55963 3.2745 4.6849 8.796 4.6849 8.796" stroke-width="2.1326"/>
    <path d="m28.242 38.497s-0.82176 3.0139-0.47442 4.4722c0.53543 2.248 3.7605 5.8241 3.7605 5.8241" stroke-width="2.1326"/>
   </g>
   <g stroke-width="1.722">
    <path d="m22.419 74.818s1.2992 5.45 3.189 7.3274c2.1661 2.1519 6.0546 3.537 8.4228 3.5999 2.1178 0.0563 4.1703-1.3839 5.9062-2.6703 2.3168-1.7169 5.7035-6.5044 5.7035-6.5044"/>
    <path d="m17.869 75.537s2.7945 9.6246 5.6469 12.555c2.5292 2.598 5.3606 3.5659 10.509 4.8087 5.087-0.98415 9.1338-2.3557 11.946-5.7681 2.4594-2.9844 2.9552-11.219 2.9552-11.219"/>
    <path d="m29.21 78.543 8.1056-0.65721-4.1623 2.4098z"/>
    <path d="m34.468 85.115-1.0954-6.3531"/>
    <path d="m23.076 78.543-3.9433 1.7526"/>
    <path d="m23.733 81.171-2.4098 2.1907"/>
    <path d="m25.705 82.486-3.067 4.3814"/>
    <path d="m27.457 83.143-1.3144 6.5721"/>
    <path d="m30.305 85.334-0.65722 5.6958"/>
    <path d="m32.496 85.772 0.21907 6.3531"/>
    <path d="m36.001 84.896 1.5335 7.2293"/>
    <path d="m38.63 83.8 1.9716 6.5721"/>
    <path d="m41.04 82.486 3.5051 5.9149"/>
    <path d="m42.573 80.076 4.3814 4.6005"/>
    <path d="m44.326 78.323 3.9433 1.9716"/>
   </g>
  </g>
  <path d="m29.819 69.102-0.07535 0.01687s-4.1327 0.91107-6.139 1.8693c-1.6124 0.77008-4.0342 2.6544-4.5717 3.0767l-10.1-0.5398-0.08899 0.74304 13.215 2.4731 0.17444 0.10384 0.13031-0.01808s8.0598-1.1123 12.024-1.0433c3.651 0.0635 10.601 1.2391 11.418 1.3791l-0.13657 0.14162 0.51202-0.07849 0.08354 0.01454 0.04495-0.03434 13.082-2.0064-0.04859-0.74546-10.077-0.22222c-0.12639-0.11594-0.62528-0.57155-1.342-1.1681-0.81395-0.67743-1.8045-1.4517-2.6038-1.8693-1.0278-0.53707-2.598-1.024-3.9307-1.3913-1.3328-0.36735-2.422-0.60717-2.422-0.60717l-0.07182-0.01586-0.07252 0.01253s-3.0078 0.50879-4.4254 0.49829c-1.4465-0.01072-4.5037-0.57475-4.5037-0.57475z" color="#000000" color-rendering="auto" dominant-baseline="auto" image-rendering="auto" shape-rendering="auto" solid-color="#000000" style="font-feature-settings:normal;font-variant-alternates:normal;font-variant-caps:normal;font-variant-ligatures:normal;font-variant-numeric:normal;font-variant-position:normal;isolation:auto;mix-blend-mode:normal;shape-padding:0;text-decoration-color:#000000;text-decoration-line:none;text-decoration-style:solid;text-indent:0;text-orientation:mixed;text-transform:none;white-space:normal"/>
  <g fill="#806600" stroke="#000" stroke-width=".56154">
   <path d="m43.42 84.776c-0.75336-1.271-1.3746-2.33-1.3805-2.3533-0.0059-0.02334 0.15962-0.22303 0.3679-0.44377l0.37869-0.40134 1.4513 1.5251c0.7982 0.83881 1.5559 1.6353 1.6837 1.7699l0.23244 0.2448-0.22392 0.4415c-0.12316 0.24282-0.32117 0.57705-0.44003 0.74272-0.23977 0.33422-0.62489 0.78532-0.67045 0.78532-0.01616 0-0.64576-1.0399-1.3991-2.3109z"/>
   <path d="m45.404 81.771c-0.77448-0.81401-1.4162-1.5009-1.426-1.5265-0.0182-0.04743 0.56162-0.78681 0.61701-0.78681 0.03024 0 2.744 1.3487 2.778 1.3806 0.0356 0.03347-0.41985 2.0315-0.5325 2.3361-0.02392 0.06465-0.24812-0.15439-1.4365-1.4034z"/>
   <path d="m46.653 78.497-0.97359-0.49168 0.28548-0.38462c0.15701-0.21154 0.30297-0.40211 0.32435-0.42349 0.03684-0.03684 1.6325-0.30135 1.6603-0.27522 0.01077 0.01014-0.06128 0.64591-0.21601 1.9063-0.01111 0.09052-0.03972 0.16365-0.06358 0.1625-0.02385-0.0011-0.48149-0.22334-1.017-0.49376z"/>
   <path d="m41.315 89.675c-0.01056-0.0286-0.36851-1.2196-0.79544-2.6467-0.42693-1.4271-0.78383-2.6166-0.79311-2.6433-0.01713-0.04943 0.84511-0.71424 0.93618-0.72182 0.05456-0.0046 2.8093 4.6173 2.7897 4.6804-0.01918 0.06168-0.82771 0.63119-1.2744 0.89762-0.72083 0.42996-0.84188 0.49082-0.86292 0.43381z"/>
   <path d="m38.179 90.914c-0.0095-0.02832-0.24554-1.132-0.52452-2.4525-0.27898-1.3206-0.51664-2.4386-0.52814-2.4845-0.01469-0.05867 0-0.0903 0.05016-0.10642 0.03908-0.01261 0.2791-0.13586 0.53339-0.27389 0.25428-0.13803 0.46471-0.24698 0.4676-0.24213 0.0029 0.0049 0.34143 1.1323 0.75231 2.5054 0.41088 1.3731 0.75475 2.5167 0.76416 2.5412 0.019 0.0495-0.10015 0.10197-0.78117 0.34402-0.58456 0.20777-0.71097 0.23686-0.73379 0.16886z"/>
   <path d="m33.808 91.946c-0.10298-0.02829-0.1946-0.05882-0.20361-0.06783-9e-3 -9e-3 -0.05017-1.0081-0.09146-2.2203-0.0413-1.2121-0.08455-2.3956-0.09613-2.6299l-0.02105-0.426 0.7451-0.0033c0.50305-0.0022 0.8363-0.0223 1.0259-0.0618 0.15442-0.03217 0.28086-0.04812 0.28098-0.03543 0 0.01269 0.23496 1.1286 0.52189 2.4799 0.28692 1.3513 0.51575 2.4628 0.50852 2.47-0.03433 0.03433-2.3716 0.55829-2.4513 0.54953-0.01734-0.0019-0.11579-0.02661-0.21877-0.05491z"/>
   <path d="m31.148 91.244c-0.33011-0.09613-0.60443-0.179-0.6096-0.18418-0.01089-0.01089 0.52618-4.7261 0.55231-4.8491l0.01744-0.08209 0.25779 0.07148c0.14178 0.03932 0.26124 0.07625 0.26544 0.08208 0.0042 0.0058 0.03727 0.92552 0.07347 2.0437s0.07651 2.2728 0.08959 2.5656c0.01382 0.30962 0.0091 0.53138-0.01123 0.52983-0.01925-0.0014-0.3051-0.08131-0.63522-0.17744z"/>
   <path d="m28.329 90.281c-0.2192-0.09338-0.59924-0.26701-0.84453-0.38583-0.3535-0.17124-0.44196-0.22984-0.42661-0.2826 0.01064-0.03661 0.22334-1.0947 0.47266-2.3514s0.46598-2.2993 0.48148-2.3168c0.0155-0.01758 0.1567 0.03291 0.31378 0.11221 0.15708 0.07929 0.45987 0.21964 0.67286 0.31189 0.36454 0.15788 0.38675 0.17403 0.37848 0.27506-0.01644 0.2009-0.51446 4.5603-0.53541 4.6868-0.01147 0.06922-0.04184 0.12467-0.06751 0.12321-0.02566-0.0014-0.226-0.07906-0.4452-0.17245z"/>
   <path d="m25.049 88.314c-0.38983-0.3276-1.2562-1.1949-1.3284-1.3298-0.03262-0.06095 0.1343-0.32022 1.0322-1.6032 0.58911-0.84178 1.1075-1.5803 1.152-1.6411l0.08091-0.1106 0.19986 0.14921c0.10992 0.08206 0.19988 0.16727 0.19991 0.18935 0 0.07198-0.89273 4.5304-0.92154 4.6019-0.02387 0.05919-0.08522 0.02139-0.41492-0.25569z"/>
   <path d="m22.305 84.655c-0.18407-0.36438-0.33467-0.66946-0.33467-0.67797 0-0.02726 2.2528-2.0609 2.283-2.0609 0.01598 0 0.11612 0.11502 0.22252 0.25559l0.19346 0.25559-0.93317 1.3335c-0.51324 0.73344-0.96991 1.3837-1.0148 1.4451l-0.08164 0.11158z"/>
   <path d="m19.732 78.436c-0.33946-0.97139-0.71054-2.1225-0.69064-2.1424 0.03481-0.03481 2.5584 0.45201 2.6706 0.51518 0.07021 0.03953 0.1534 0.0532 0.2329 0.03829l0.12368-0.0232 0.16608 0.52727c0.09134 0.29 0.16081 0.53087 0.15437 0.53528-0.0064 0.0044-0.56388 0.25294-1.2387 0.55231l-1.227 0.54431z"/>
   <path d="m21.16 82.2c-0.01978-0.04948-0.16807-0.41952-0.32954-0.8223-0.16147-0.40279-0.28912-0.73657-0.28366-0.74174 0.02777-0.0263 2.48-1.1032 2.4898-1.0934 0.0063 0.0063 0.08038 0.17055 0.16467 0.36496 0.08429 0.19441 0.26849 0.57662 0.40932 0.84938 0.14084 0.27275 0.25171 0.50027 0.24639 0.5056-0.0053 0.0053-0.15647-0.1547-0.33588-0.35562-0.17941-0.20091-0.34468-0.36485-0.36728-0.36431-0.0226 5.17e-4 -0.21536 0.15955-0.42836 0.35334-0.213 0.1938-0.64427 0.58673-0.95837 0.87319-0.54317 0.49537-0.57286 0.51644-0.60706 0.43087z"/>
  </g>
  <path d="m31.812 84.425c-2.9775-0.84901-5.3816-2.3939-6.3677-4.0919-0.4512-0.77693-1.5357-3.4855-1.4357-3.5855 0.04091-0.04091 1.2841-0.21333 2.7626-0.38315 3.5173-0.404 8.2316-0.54227 10.521-0.30859 2.5546 0.26081 6.5545 0.82135 6.6885 0.93734 0.1492 0.12914-1.5993 2.3357-3.0739 3.8791-0.63683 0.66656-1.6747 1.5692-2.3065 2.006-1.0937 0.75606-2.8494 1.7147-3.1404 1.7147-0.12801 0-0.89375-4.003-0.78426-4.0998 0.02805-0.0248 0.69693-0.4106 1.4864-0.85732 0.78948-0.44673 1.4766-0.87895 1.527-0.96049 0.1381-0.22345-0.26988-1.5347-0.50565-1.6252-0.19417-0.07451-7.9678 0.53207-8.065 0.62932-0.12114 0.12113-0.32032 1.5827-0.22847 1.6764 0.05782 0.059 0.90677 0.46346 1.8866 0.8988 0.97978 0.43534 1.8582 0.87502 1.952 0.97707 0.14528 0.15803 0.6814 2.7791 0.6814 3.3313 0 0.24867-0.34556 0.21878-1.5974-0.13818z" fill="#fff"/>
 </g>
</svg>
